HIERARCHY
ROOT joint_Root
{
	OFFSET 0.0 0.0 0.0
	CHANNELS 6 Xposition Yposition Zposition Zrotation Xrotation Yrotation 
	JOINT Hips
	{
		OFFSET -0.726466 93.3139 -2.00062
		CHANNELS 6 Xposition Yposition Zposition Zrotation Xrotation Yrotation 
		JOINT Spine
		{
			OFFSET 15.7357 0.0 0.0
			CHANNELS 6 Xposition Yposition Zposition Zrotation Xrotation Yrotation 
			JOINT Chest
			{
				OFFSET 8.98455 -0.406207 0.0
				CHANNELS 6 Xposition Yposition Zposition Zrotation Xrotation Yrotation 
				JOINT Neck
				{
					OFFSET 16.3773 0.0 0.0
					CHANNELS 6 Xposition Yposition Zposition Zrotation Xrotation Yrotation 
					JOINT Head
					{
						OFFSET 6.45672 0.0 0.0
						CHANNELS 6 Xposition Yposition Zposition Zrotation Xrotation Yrotation 
						End Site
						{
							OFFSET 0.0 0.0 0.0
						}
					}
				}
				JOINT Shoulder_L
				{
					OFFSET 12.9942 -0.242716 4.98039
					CHANNELS 6 Xposition Yposition Zposition Zrotation Xrotation Yrotation 
					JOINT UpperArm_L
					{
						OFFSET 5.34809 0.0 0.0
						CHANNELS 6 Xposition Yposition Zposition Zrotation Xrotation Yrotation 
						JOINT LowerArm_L
						{
							OFFSET 24.3286 1.87007e-05 0.0
							CHANNELS 6 Xposition Yposition Zposition Zrotation Xrotation Yrotation 
							JOINT Hand_L
							{
								OFFSET 22.2916 0.0 0.0
								CHANNELS 6 Xposition Yposition Zposition Zrotation Xrotation Yrotation 
								End Site
								{
									OFFSET 0.0 0.0 0.0
								}
							}
						}
					}
				}
				JOINT Shoulder_R
				{
					OFFSET 12.9945 -0.242716 -4.98039
					CHANNELS 6 Xposition Yposition Zposition Zrotation Xrotation Yrotation 
					JOINT UpperArm_R
					{
						OFFSET -5.34813 0.0 0.0
						CHANNELS 6 Xposition Yposition Zposition Zrotation Xrotation Yrotation 
						JOINT LowerArm_R
						{
							OFFSET -24.3289 0.000322201 0.0
							CHANNELS 6 Xposition Yposition Zposition Zrotation Xrotation Yrotation 
							JOINT Hand_R
							{
								OFFSET -22.2915 -0.000108084 0.0
								CHANNELS 6 Xposition Yposition Zposition Zrotation Xrotation Yrotation 
								End Site
								{
									OFFSET 0.0 0.0 0.0
								}
							}
						}
					}
				}
			}
		}
		JOINT UpperLeg_L
		{
			OFFSET -2.19248 -6.46944 0.0
			CHANNELS 6 Xposition Yposition Zposition Zrotation Xrotation Yrotation 
			JOINT LowerLeg_L
			{
				OFFSET 39.0811 0.0 -1.23785e-05
				CHANNELS 6 Xposition Yposition Zposition Zrotation Xrotation Yrotation 
				JOINT Foot_L
				{
					OFFSET 40.9854 0.0 -1.26872e-05
					CHANNELS 6 Xposition Yposition Zposition Zrotation Xrotation Yrotation 
					JOINT Toes_L
					{
						OFFSET 11.7543 0.0 0.0
						CHANNELS 6 Xposition Yposition Zposition Zrotation Xrotation Yrotation 
						End Site
						{
							OFFSET 0.0 0.0 0.0
						}
					}
				}
			}
		}
		JOINT UpperLeg_R
		{
			OFFSET -2.19251 6.46944 0.0
			CHANNELS 6 Xposition Yposition Zposition Zrotation Xrotation Yrotation 
			JOINT LowerLeg_R
			{
				OFFSET -39.0811 -0.00228153 -0.0401928
				CHANNELS 6 Xposition Yposition Zposition Zrotation Xrotation Yrotation 
				JOINT Foot_R
				{
					OFFSET -40.9854 0.0 0.0
					CHANNELS 6 Xposition Yposition Zposition Zrotation Xrotation Yrotation 
					JOINT Toes_R
					{
						OFFSET -11.7543 0.0 0.0
						CHANNELS 6 Xposition Yposition Zposition Zrotation Xrotation Yrotation 
						End Site
						{
							OFFSET 0.0 0.0 0.0
						}
					}
				}
			}
		}
	}
}
MOTION
Frames:	6
Frame Time:	0.0333333
0.000000 0.000000 0.000000 0.000000 0.000000 -0.000000 0.961856 92.351300 -3.191410 87.563900 -2.559250 6.022180 15.735700 0.000005 -0.000001 90.416700 85.521600 -90.992000 8.984550 -0.406207 -0.000000 1.191360 0.098102 -1.150650 16.377300 -0.000001 -0.000001 5.592560 -3.148880 3.212180 6.456720 -0.000001 -0.000000 6.898070 -4.166630 -0.464459 12.994200 -0.242716 4.980390 -89.792700 -0.649485 -72.296700 5.348090 -0.000007 -0.000001 -67.271700 40.448300 -13.417600 24.328600 0.000019 0.000005 1.428990 3.624160 -21.535500 22.291600 -0.000001 0.000005 4.417090 5.503460 -6.673300 12.994500 -0.242716 -4.980390 90.188500 -0.561525 -71.440900 -5.348130 -0.000001 -0.000004 -78.484700 -26.706300 -96.398100 -24.328900 0.000322 -0.000009 15.831800 0.079982 -89.719000 -22.291500 -0.000108 -0.000004 19.875300 5.331150 -0.819092 -2.192480 -6.469440 -0.000000 -176.436000 -5.184810 -2.308160 39.081100 -0.000007 -0.000012 -0.060996 0.137523 23.918900 40.985400 -0.000006 -0.000013 0.824945 1.779930 -65.851200 11.754300 -0.000000 0.000003 -0.000044 -0.000509 -16.597400 -2.192510 6.469440 -0.000001 179.185000 12.054200 -179.269000 -39.081100 -0.002282 -0.040193 -0.002352 0.015841 19.705300 -40.985400 0.000008 0.000006 3.025290 6.956720 -64.726400 -11.754300 -0.000006 -0.000006 -0.006838 -0.078262 -19.759000
0.000000 0.000000 0.000000 0.000000 0.000000 -0.000000 0.976541 92.356900 -3.241750 87.561100 -2.579380 5.990800 15.735700 0.000005 -0.000001 90.342200 85.506200 -90.898800 8.984550 -0.406207 -0.000000 1.222100 0.085430 -1.113120 16.377300 -0.000001 -0.000001 5.505170 -3.168790 3.264170 6.456720 -0.000001 -0.000000 6.895730 -4.137030 -0.424078 12.994200 -0.242716 4.980390 -89.795800 -0.639628 -72.293800 5.348090 -0.000007 -0.000001 -67.231500 40.385100 -13.512500 24.328600 0.000019 0.000005 1.472680 3.718160 -21.624900 22.291600 -0.000001 0.000005 4.367310 5.504580 -6.718980 12.994500 -0.242716 -4.980390 90.164200 -0.488727 -71.429900 -5.348130 -0.000001 -0.000004 -77.932600 -26.909400 -95.812000 -24.328900 0.000322 -0.000009 15.627300 0.006751 -89.976900 -22.291500 -0.000108 -0.000004 19.887300 5.331870 -0.840158 -2.192480 -6.469440 -0.000000 -176.459000 -5.146580 -2.368820 39.081100 -0.000007 -0.000012 -0.060556 0.136614 23.905900 40.985400 -0.000006 -0.000013 0.831610 1.740270 -65.809600 11.754300 -0.000000 0.000003 -0.000042 -0.000481 -16.596300 -2.192510 6.469440 -0.000001 179.186000 12.072500 -179.332000 -39.081100 -0.002282 -0.040193 -0.002211 0.015461 19.690800 -40.985400 0.000008 0.000006 3.029400 7.003730 -64.681100 -11.754300 -0.000006 -0.000006 -0.007201 -0.081380 -19.886200
0.000000 0.000000 0.000000 0.000000 0.000000 -0.000000 0.986379 92.367200 -3.298440 87.561600 -2.612780 5.953910 15.735700 0.000005 -0.000001 90.440800 85.492800 -90.972100 8.984550 -0.406207 -0.000000 1.248830 0.099519 -1.062710 16.377300 -0.000001 -0.000001 5.399230 -3.192540 3.295110 6.456720 -0.000001 -0.000000 6.835520 -4.182020 -0.411646 12.994200 -0.242716 4.980390 -89.802700 -0.618582 -72.305800 5.348090 -0.000007 -0.000001 -67.232900 40.365700 -13.580900 24.328600 0.000019 0.000005 1.473310 3.705630 -21.699600 22.291600 -0.000001 0.000005 4.344260 5.504720 -6.724720 12.994500 -0.242716 -4.980390 90.130100 -0.386976 -71.412800 -5.348130 -0.000001 -0.000004 -76.949900 -27.206100 -94.673100 -24.328900 0.000322 -0.000009 15.480400 -0.138622 -90.501600 -22.291500 -0.000108 -0.000004 19.922200 5.329950 -0.783997 -2.192480 -6.469440 -0.000000 -176.462000 -5.159190 -2.418870 39.081100 -0.000007 -0.000012 -0.062142 0.140507 23.858400 40.985400 -0.000006 -0.000013 0.822864 1.711200 -65.746800 11.754300 -0.000000 0.000003 -0.000040 -0.000465 -16.595700 -2.192510 6.469440 -0.000001 179.215000 12.025900 -179.399000 -39.081100 -0.002282 -0.040193 -0.001463 0.013403 19.648000 -40.985400 0.000008 0.000006 3.019180 6.956380 -64.608800 -11.754300 -0.000006 -0.000006 -0.006892 -0.078736 -19.778300
0.000000 0.000000 0.000000 0.000000 0.000000 -0.000000 0.984375 92.368000 -3.352280 87.526600 -2.592790 5.918210 15.735700 0.000005 -0.000001 90.161600 85.468200 -90.652800 8.984550 -0.406207 -0.000000 1.297900 0.053267 -0.982247 16.377300 -0.000001 -0.000001 5.300910 -3.197830 3.259620 6.456720 -0.000001 -0.000000 6.610840 -4.141050 -0.352861 12.994200 -0.242716 4.980390 -89.813600 -0.583576 -72.282400 5.348090 -0.000007 -0.000001 -67.202900 40.423200 -13.689900 24.328600 0.000019 0.000005 1.467900 3.684400 -21.740100 22.291600 -0.000001 0.000005 4.408600 5.506040 -6.778510 12.994500 -0.242716 -4.980390 90.077100 -0.229351 -71.411200 -5.348130 -0.000001 -0.000004 -75.515400 -27.532100 -92.801100 -24.328900 0.000322 -0.000009 15.153200 -0.382886 -91.414600 -22.291500 -0.000108 -0.000004 19.845300 5.332070 -0.846180 -2.192480 -6.469440 -0.000000 -176.431000 -5.124500 -2.520310 39.081100 -0.000007 -0.000012 -0.062786 0.141643 23.906200 40.985400 -0.000006 -0.000013 0.820215 1.713240 -65.728800 11.754300 -0.000000 0.000003 -0.000046 -0.000525 -16.598000 -2.192510 6.469440 -0.000001 179.265000 12.054000 -179.476000 -39.081100 -0.002282 -0.040193 -0.000074 0.009506 19.658500 -40.985400 0.000008 0.000006 3.098860 6.968890 -64.590100 -11.754300 -0.000006 -0.000006 -0.007058 -0.080160 -19.836400
0.000000 0.000000 0.000000 0.000000 0.000000 -0.000000 0.979375 92.376100 -3.391610 87.537600 -2.563890 5.879130 15.735700 0.000005 -0.000001 90.069800 85.448200 -90.537000 8.984550 -0.406207 -0.000000 1.337960 0.037289 -0.933833 16.377300 -0.000001 -0.000001 5.109980 -3.242210 3.277680 6.456720 -0.000001 -0.000000 6.482760 -4.183900 -0.378718 12.994200 -0.242716 4.980390 -89.832000 -0.526061 -72.292100 5.348090 -0.000007 -0.000001 -67.153000 40.528100 -13.803200 24.328600 0.000019 0.000005 1.461670 3.660330 -21.785300 22.291600 -0.000001 0.000005 4.323060 5.505870 -6.771720 12.994500 -0.242716 -4.980390 90.024300 -0.071965 -71.323100 -5.348130 -0.000001 -0.000004 -73.436500 -27.692800 -89.784800 -24.328900 0.000322 -0.000009 14.317900 -0.729484 -92.856800 -22.291500 -0.000108 -0.000004 20.048700 5.332720 -0.865148 -2.192480 -6.469440 -0.000000 -176.434000 -5.219530 -2.560510 39.081100 -0.000007 -0.000012 -0.060930 0.137773 23.857600 40.985400 -0.000006 -0.000013 0.845835 1.827210 -65.681500 11.754300 -0.000000 0.000003 -0.000042 -0.000491 -16.596700 -2.192510 6.469440 -0.000001 179.283000 12.066100 -179.537000 -39.081100 -0.002282 -0.040193 0.000776 0.007136 19.637100 -40.985400 0.000008 0.000006 3.134350 6.937070 -64.554500 -11.754300 -0.000006 -0.000006 -0.006944 -0.079183 -19.796600
0.000000 0.000000 0.000000 0.000000 0.000000 -0.000000 0.968694 92.379700 -3.418270 87.568000 -2.518170 5.862220 15.735700 0.000005 -0.000001 89.763000 85.416000 -90.225800 8.984550 -0.406207 -0.000000 1.402060 -0.012204 -0.924552 16.377300 -0.000001 -0.000001 4.940140 -3.195890 3.212830 6.456720 -0.000001 -0.000000 6.365170 -4.115760 -0.279081 12.994200 -0.242716 4.980390 -89.847600 -0.475874 -72.239600 5.348090 -0.000007 -0.000001 -67.124400 40.591800 -13.903700 24.328600 0.000019 0.000005 1.429840 3.567990 -21.854300 22.291600 -0.000001 0.000005 4.345380 5.506010 -6.777240 12.994500 -0.242716 -4.980390 89.923400 0.226669 -71.324600 -5.348130 -0.000001 -0.000004 -70.414900 -27.728400 -85.508700 -24.328900 0.000322 -0.000009 13.252700 -1.130900 -94.791200 -22.291500 -0.000108 -0.000004 20.249900 5.337950 -1.018720 -2.192480 -6.469440 -0.000000 -176.469000 -5.130440 -2.598280 39.081100 -0.000007 -0.000012 -0.061776 0.139878 23.828400 40.985400 -0.000006 -0.000013 0.828489 1.792140 -65.634900 11.754300 -0.000000 0.000003 -0.000044 -0.000510 -16.597400 -2.192510 6.469440 -0.000001 179.260000 12.103100 -179.581000 -39.081100 -0.002282 -0.040193 -0.000476 0.010638 19.645300 -40.985400 0.000008 0.000006 3.093810 6.933640 -64.531100 -11.754300 -0.000006 -0.000006 -0.007080 -0.080353 -19.844300
